<svg version="1.1" viewBox="0.0 0.0 600.0 200.0" fill="none" stroke="none" stroke-linecap="square" stroke-miterlimit="10" xmlns:xlink="http://www.w3.org/1999/xlink" xmlns="http://www.w3.org/2000/svg"><clipPath id="p.0"><path d="m0 0l600.0 0l0 200.0l-600.0 0l0 -200.0z" clip-rule="nonzero"/></clipPath><g clip-path="url(#p.0)"><path fill="#000000" fill-opacity="0.0" d="m0 0l600.0 0l0 200.0l-600.0 0z" fill-rule="evenodd"/><path fill="#000000" fill-opacity="0.0" d="m1.2886401 12.834645l600.0 0l0 206.33072l-600.0 0z" fill-rule="evenodd"/><path fill="#0652dd" d="m81.93287 173.2315q-19.046879 0 -33.125004 -6.953125q-14.078125 -6.96875 -21.609373 -19.765625q-7.515625 -12.796875 -7.515625 -29.765617q0 -23.515625 8.875 -41.75q8.890623 -18.250004 24.093748 -28.250004q15.203129 -10.0 33.750004 -10.0q17.28125 0 26.234375 8.890625q8.96875 8.875 8.96875 23.437504q0 9.765625 -3.4375 15.6875q-3.4375 5.90625 -9.84375 5.90625q-4.46875 0 -7.03125 -2.078125q-2.5625 -2.078125 -2.5625 -6.078125q0 -1.4375 0.640625 -5.28125q0.953125 -4.796875 0.953125 -7.671875q0 -14.562504 -15.515625 -14.562504q-10.5625 0 -20.171875 6.875q-9.593754 6.875004 -15.515629 20.250004q-5.90625 13.359375 -5.90625 31.75q0 19.203117 10.71875 29.687492q10.718754 10.46875 31.671879 10.46875q10.40625 0 21.046875 -2.640625q10.640625 -2.640625 23.593742 -8.078125q2.40625 -0.953125 4.0 -0.953125q2.5625 0 3.84375 1.921875q1.28125 1.921875 1.28125 4.953125q0 9.765625 -10.5625 14.40625q-11.359367 4.953125 -23.609367 7.28125q-12.234375 2.3125 -23.265625 2.3125zm124.95692 -49.921867q2.078125 0 3.1875 2.09375q1.125 2.078125 1.125 5.2656174q0 7.6875 -4.640625 9.125q-9.59375 3.359375 -21.109375 3.84375q-3.046875 13.4375 -12.015625 21.515625q-8.953125 8.078125 -20.3125 8.078125q-9.59375 0 -16.40625 -4.640625q-6.796875 -4.640625 -10.312492 -12.3125q-3.515625 -7.6875 -3.515625 -16.640625q0 -12.156242 4.640625 -21.671867q4.6406174 -9.53125 12.796867 -14.890625q8.15625 -5.359375 18.078125 -5.359375q12.15625 0 19.59375 8.40625q7.453125 8.390625 8.734375 20.71875q7.515625 -0.484375 17.921875 -3.203125q1.265625 -0.328125 2.234375 -0.328125zm-52.484375 32.968742q5.125 0 8.875 -4.15625q3.765625 -4.171875 5.046875 -12.0q-4.953125 -3.375 -7.59375 -8.8125q-2.640625 -5.4374924 -2.640625 -11.515617q0 -2.5625 0.46875 -5.125l-0.796875 0q-6.390625 0 -10.640625 6.171875q-4.234375 6.15625 -4.234375 17.359367q0 8.796875 3.4375 13.4375q3.4375 4.640625 8.078125 4.640625zm103.675644 -19.53125q2.09375 0 3.28125 1.921875q1.203125 1.921875 1.203125 5.28125q0 6.40625 -3.03125 9.921875q-6.8906097 8.484375 -14.968735 13.921875q-8.078125 5.4375 -18.3125 5.4375q-14.078125 0 -20.890625 -12.796875q-6.796875 -12.796875 -6.796875 -33.124992q0 -19.515625 5.03125 -44.46875q5.046875 -24.968754 14.890625 -42.89063q9.84375 -17.921873 23.4375 -17.921873q7.6875 0 12.078125 7.125q4.4062347 7.124998 4.4062347 20.406248q0 19.031254 -10.562485 44.156254q-10.5625 25.125 -28.640625 49.765617q1.125 6.546875 3.6875 9.359375q2.5625 2.796875 6.71875 2.796875q6.5625 0 11.515625 -3.75q4.953125 -3.765625 12.640625 -12.890625q1.921875 -2.25 4.3124847 -2.25zm-19.67186 -98.875q-3.6875 0 -8.328125 13.28125q-4.625 13.281254 -8.15625 32.968754q-3.515625 19.671875 -3.84375 37.75q11.375 -18.71875 18.09375 -37.515625q6.71875 -18.796875 6.71875 -34.32813q0 -12.15625 -4.484375 -12.15625zm82.56627 98.875q2.078125 0 3.265625 1.921875q1.203125 1.921875 1.203125 5.28125q0 6.40625 -3.03125 9.921875q-5.921875 7.203125 -16.734375 13.28125q-10.796875 6.078125 -23.109375 6.078125q-16.796875 0 -26.078094 -9.109375q-9.281265 -9.125 -9.281265 -24.96875q0 -11.03125 4.640625 -20.546867q4.6406403 -9.53125 12.874985 -15.125q8.25 -5.609375 18.640625 -5.609375q9.28125 0 14.875 5.53125q5.609375 5.515625 5.609375 14.953125q0 11.031242 -7.921875 18.953117q-7.921875 7.921875 -26.796875 12.5625q4.0 7.359375 15.203125 7.359375q7.1875 0 16.390625 -5.03125q9.203125 -5.046875 15.921875 -13.203125q1.921875 -2.25 4.328125 -2.25zm-40.328125 -23.187492q-5.921875 0 -10.0 6.875q-4.078125 6.875 -4.078125 16.640617l0 0.3125q9.4375 -2.234375 14.875 -6.703125q5.4375 -4.4843674 5.4375 -10.406242q0 -3.046875 -1.6875 -4.875q-1.671875 -1.84375 -4.546875 -1.84375zm103.20819 23.187492q2.078125 0 3.265625 1.921875q1.203125 1.921875 1.203125 5.28125q0 6.40625 -3.03125 9.921875q-6.890625 8.484375 -15.046875 13.921875q-8.15625 5.4375 -18.71875 5.4375q-32.640625 0 -32.640625 -45.921867q0 -7.03125 0.484375 -14.234375l-6.25 0q-4.796875 0 -6.484375 -1.75q-1.671875 -1.765625 -1.671875 -5.609375q0 -8.96875 7.203125 -8.96875l9.125 0q2.71875 -17.59375 8.3125 -32.15625q5.609375 -14.562504 13.515625 -23.203129q7.921875 -8.640625 17.046875 -8.640625q6.71875 0 10.5625 5.921875q3.84375 5.921875 3.84375 14.890625q0 24.796879 -20.8125 43.187504l17.921875 0q2.5625 0 3.6875 1.125q1.125 1.125 1.125 4.15625q0 11.046875 -18.09375 11.046875l-19.515625 0q-0.3125 8.0 -0.3125 12.484375q0 16.640617 3.90625 23.359367q3.921875 6.71875 12.40625 6.71875q6.875 0 12.15625 -4.15625q5.28125 -4.171875 12.484375 -12.484375q1.921875 -2.25 4.328125 -2.25zm-28.0 -88.625q-2.40625 0 -5.375 6.0q-2.953125 6.0 -5.59375 16.640629q-2.640625 10.625 -4.390625 23.59375q9.4375 -8.15625 14.15625 -18.3125q4.71875 -10.171875 4.71875 -18.484379q0 -9.4375 -3.515625 -9.4375zm40.473785 39.187504q-6.71875 0 -10.078125 -3.109375q-3.359375 -3.125 -3.359375 -8.71875q0 -5.609375 4.390625 -9.359375q4.40625 -3.7656288 10.96875 -3.7656288q5.921875 0 9.59375 2.8906288q3.6875 2.875 3.6875 8.140625q0 6.40625 -4.171875 10.171875q-4.15625 3.75 -11.03125 3.75zm-1.28125 85.92187q-10.40625 0 -15.125 -7.359375q-4.71875 -7.359375 -4.71875 -19.515625q0 -7.203125 1.84375 -18.484367q1.84375 -11.28125 4.71875 -21.03125q1.4375 -5.125 3.828125 -7.046875q2.40625 -1.921875 7.6875 -1.921875q8.171875 0 8.171875 5.4375q0 4.0 -3.046875 18.5625q-3.84375 17.609367 -3.84375 23.843742q0 4.796875 1.28125 7.359375q1.28125 2.5625 4.328125 2.5625q2.875 0 7.1875 -4.0q4.328125 -4.0 11.53125 -12.640625q1.921875 -2.25 4.3125 -2.25q2.078125 0 3.28125 1.921875q1.203125 1.921875 1.203125 5.28125q0 6.40625 -3.046875 9.921875q-15.828125 19.359375 -29.59375 19.359375zm100.47562 -49.437492q0.484375 -0.15625 1.609375 -0.15625q2.390625 0 3.671875 1.609375q1.28125 1.59375 1.28125 4.3124924q0 4.953125 -1.921875 7.765625q-1.921875 2.796875 -5.75 4.0625q-7.359375 2.40625 -15.6875 2.40625q-7.03125 0 -13.28125 -1.921875q-4.640625 7.515625 -10.234375 15.515625q-6.40625 9.125 -11.046875 12.484375q-4.640625 3.359375 -10.5625 3.359375q-6.546875 0 -10.3125 -5.109375q-3.765625 -5.125 -4.71875 -16.171875q-1.921875 -22.390625 -1.921875 -39.203117l0 -5.59375q0.15625 -5.28125 2.875 -7.359375q2.71875 -2.078125 8.171875 -2.078125q4.15625 0 6.15625 1.84375q2.0 1.828125 2.0 6.15625q0 18.40625 2.234375 47.843742q9.609375 -14.25 14.40625 -22.71875q-2.40625 -4.6406174 -2.40625 -11.046867q0 -5.4375 2.390625 -10.546875q2.40625 -5.125 6.5625 -8.328125q4.171875 -3.203125 9.453125 -3.203125q4.640625 0 7.515625 3.28125q2.875 3.28125 2.875 9.515625q0 7.203125 -3.828125 16.484375q6.078125 -0.328125 16.15625 -2.40625l4.3125 -0.796875zm13.605652 -36.484375q-6.71875 0 -10.078125 -3.109375q-3.359375 -3.125 -3.359375 -8.71875q0 -5.609375 4.390625 -9.359375q4.40625 -3.7656288 10.96875 -3.7656288q5.921875 0 9.59375 2.8906288q3.6875 2.875 3.6875 8.140625q0 6.40625 -4.171875 10.171875q-4.15625 3.75 -11.03125 3.75zm-1.28125 85.92187q-10.40625 0 -15.125 -7.359375q-4.71875 -7.359375 -4.71875 -19.515625q0 -7.203125 1.84375 -18.484367q1.84375 -11.28125 4.71875 -21.03125q1.4375 -5.125 3.828125 -7.046875q2.40625 -1.921875 7.6875 -1.921875q8.171875 0 8.171875 5.4375q0 4.0 -3.046875 18.5625q-3.84375 17.609367 -3.84375 23.843742q0 4.796875 1.28125 7.359375q1.28125 2.5625 4.328125 2.5625q2.875 0 7.1875 -4.0q4.328125 -4.0 11.53125 -12.640625q1.921875 -2.25 4.3125 -2.25q2.078125 0 3.28125 1.921875q1.203125 1.921875 1.203125 5.28125q0 6.40625 -3.046875 9.921875q-15.828125 19.359375 -29.59375 19.359375zm38.078735 0q-9.125 0 -14.8125 -7.1875q-5.671875 -7.203125 -5.671875 -18.890625q0 -12.796875 5.921875 -24.234367q5.921875 -11.4375 15.765625 -18.390625q9.84375 -6.96875 20.875 -6.96875q3.53125 0 4.71875 1.359375q1.203125 1.359375 2.0 4.875q3.046875 -0.640625 6.71875 -0.640625q3.84375 0 5.921875 1.921875q2.078125 1.921875 2.078125 5.4375q0 3.6875 -1.59375 12.796875q-1.765625 9.765617 -2.734375 18.656242q-0.953125 8.875 -0.953125 19.90625q0 6.078125 -2.484375 8.71875q-2.46875 2.640625 -8.0625 2.640625q-5.453125 0 -8.09375 -2.640625q-2.625 -2.640625 -2.625 -8.5625l0.15625 -2.546875q-4.96875 13.75 -17.125 13.75zm6.234375 -16.15625q4.484375 0 8.15625 -6.234375q3.6875 -6.25 6.578125 -22.25l3.03125 -16.156242q-6.5625 0.15625 -12.171875 5.046875q-5.59375 4.875 -8.953125 12.874992q-3.359375 8.0 -3.359375 16.953125q0 4.8125 1.84375 7.296875q1.84375 2.46875 4.875 2.46875z" fill-rule="nonzero"/></g></svg>